<svg width="717" height="707" viewBox="0 0 717 707" fill="none" xmlns="http://www.w3.org/2000/svg">
<path d="M486.671 278.204C492.494 292.095 497.573 311.059 501.906 335.398C503.698 345.403 507.88 348.538 508.776 348.538C509.818 348.538 514.005 345.403 515.797 335.246C520.125 311.35 525.057 292.684 530.879 278.798C523.411 277.158 515.645 276.408 507.431 276.408C500.259 276.413 493.238 277.012 486.671 278.205L486.671 278.204Z" fill="#CAFC01"/>
<path d="M565.778 262.804C546.966 259.476 535.278 311.184 530.481 337.965C524.33 371.845 493.418 372.153 487.21 337.965C482.408 311.184 470.721 259.476 451.913 262.804C414.777 269.346 328.886 315.892 323.184 359.173C322.335 365.986 325.506 372.643 331.465 376.127C332.47 376.747 333.71 377.445 335.027 378.137C335.027 378.137 373.345 396.173 391.533 398.569C417.626 402.163 600.186 402.147 626.146 398.569C644.339 396.168 682.651 378.137 682.651 378.137C683.969 377.439 685.203 376.741 686.214 376.127C692.177 372.642 695.349 365.986 694.495 359.173C688.604 314.46 601.011 269.012 565.771 262.804H565.778Z" fill="#CAFC01"/>
<path d="M703.938 26.6588C703.938 26.6588 679.693 40.2428 673.589 50.5388C667.448 60.7992 651.115 74.4921 653.537 87.6428C653.537 87.6428 678.427 92.5907 697.974 77.9605C697.974 77.9605 699.344 93.8566 693.641 99.9659C693.641 99.9659 737.969 75.2165 703.938 26.6592L703.938 26.6588Z" fill="#CAFC01"/>
<path d="M225.338 362.884C225.338 362.884 222.203 378.415 238.031 367.363C253.859 356.311 288.656 343.019 288.656 343.019C288.656 343.019 288.359 343.467 287.76 344.363C298.51 337.045 308.818 332.863 318.375 331.222H318.521C345.25 288.66 416.333 253.868 449.338 248.045C450.833 247.894 452.177 247.748 453.666 247.748C462.776 247.748 470.693 252.227 477.708 261.634C493.838 255.061 520.568 246.551 541.025 251.925C549.088 242.368 568.504 219.671 578.806 210.712C592.098 199.212 613.604 180.993 617.634 137.54C617.634 137.54 633.462 131.415 632.717 118.275C632.717 118.275 643.321 116.483 649.744 102.144L640.634 100.352C637.947 82.2842 634.811 74.9669 654.822 50.7735C683.645 14.1855 691.109 18.3669 697.682 12.9922C692.453 6.27341 683.046 -0.148453 666.474 0.00261359C632.876 0.450534 587.329 25.5386 521.768 82.8826C419.622 172.185 288.501 255.816 286.274 279.709C286.274 279.709 235.801 318.236 239.982 333.767C239.977 333.767 207.122 361.84 225.342 362.887L225.338 362.884ZM647.805 23.1508C652.435 23.1508 656.169 26.8852 656.169 31.5154C656.169 36.2966 652.435 40.0258 647.805 40.0258C643.024 40.0258 639.294 36.2914 639.294 31.5154C639.294 26.8851 643.029 23.1508 647.805 23.1508V23.1508Z" fill="#CAFC01"/>
<path d="M310.165 348.991C295.195 355.267 305.759 351.475 275.519 364.522C269.098 376.318 263.275 389.907 265.217 397.527C265.217 397.527 233.857 420.521 245.805 428.287C245.805 428.287 132.165 600.02 107.219 619.434C82.2813 638.846 67.7973 674.089 0 702.464C0 702.464 30.464 723.969 83.6253 671.401C136.937 618.833 258.652 465.922 258.652 465.922C286.876 436.952 299.417 431.572 332.871 393.495C311.808 384.469 304.496 370.552 310.168 348.995L310.165 348.991Z" fill="white"/>
</svg>
